# xmcd
#
# Track frame offsets: 
#        150
#        33993
#        69504
#        101316
#        132194
#        165766
#        198454
#        233541
#        267039
#        296966
#        326699
#
# Disc length: 4676 seconds
#
# Revision: 0
# Processed by: cddbd v1.5.2PL0 Copyright (c) Steve Scherf et al.
# Submitted via: ExactAudioCopy v0.99pb5
#
DISCID=9012420b
DTITLE=Various Artist - Bedrock 12 [CD1)
DYEAR=2010
DGENRE=Progressive House, House, Techno, Tech House, Minimal
TTITLE0=Sistema - Krace Gelly
TTITLE1=Maetrik - Glob Monster
TTITLE2=Wiretappeur - Too Much Space
TTITLE3=Vincenzo and Lovebirds - Epic
TTITLE4=Quivver - Orgazoid (Mix 1)
TTITLE5=Misstress Barbara - Azzuri (Luis Junior Remix)
TTITLE6=King Unique and Anthony Pappa - Vamoosh
TTITLE7=Max Cooper - Ediolic Spectra
TTITLE8=Christian Smith - System Of Survival
TTITLE9=Tone Depth - Rumblefish (Diyo Remix)
TTITLE10=Nick Warren - In Search Of Silver (Ambient Mix)
EXTD=
EXTT0=
EXTT1=
EXTT2=
EXTT3=
EXTT4=
EXTT5=
EXTT6=
EXTT7=
EXTT8=
EXTT9=
EXTT10=
PLAYORDER=
